<svg width="1920" height="1197" viewBox="0 0 1920 1197" fill="none" xmlns="http://www.w3.org/2000/svg">
<path d="M1950.5 2C2580.39 2.00005 3150.8 90.7191 3563.81 258.991C3976.71 427.218 4233 675.291 4233 994.315C4233 1313.22 3976.87 1601.41 3563.96 1809.76C3150.94 2018.16 2580.49 2147 1950.5 2147C1320.51 2147 750.065 2018.16 337.042 1809.76C-75.8667 1601.41 -332 1313.22 -332 994.315C-332 883.755 -300.451 801.333 -244.554 739.866C-188.697 678.444 -108.7 638.138 -12.1396 611.437C180.894 558.058 440.995 558.844 709.062 554.816C977.311 550.786 1253.65 541.942 1479.76 469.535C1705.74 397.172 1881.34 261.4 1948.57 3.49512L1948.96 2H1950.5Z" fill="#010101" stroke="url(#paint0_linear_268_407)" stroke-width="4"/>
<defs>
<linearGradient id="paint0_linear_268_407" x1="1950.5" y1="4" x2="1950.5" y2="2145" gradientUnits="userSpaceOnUse">
<stop offset="0.375" stop-color="#FEB300"/>
<stop offset="0.5625" stop-color="#E2543C"/>
</linearGradient>
</defs>
</svg>
